<svg width="24" height="24" viewBox="0 0 24 24" fill="none" xmlns="http://www.w3.org/2000/svg">
<g clip-path="url(#clip0)">
<path d="M24.4241 10.3083C24.3426 10.1347 24.1684 10.0236 23.9758 10.0236H22.511C21.5798 4.96992 17.1421 1.12823 11.8232 1.12823C5.82872 1.12823 0.951172 6.00578 0.951172 12.0002C0.951172 17.9947 5.82822 22.8718 11.8232 22.8718C15.6919 22.8718 19.2999 20.7895 21.239 17.4388C21.5122 16.9659 21.3511 16.3619 20.8777 16.0881C20.4053 15.8144 19.8008 15.9755 19.5281 16.4484C17.9408 19.1912 14.9883 20.8956 11.8232 20.8956C6.91862 20.8956 2.92781 16.9053 2.92781 12.0013C2.92781 7.09618 6.91862 3.10587 11.8232 3.10587C16.0477 3.10587 19.5871 6.06883 20.4889 10.0241H19.0357C18.843 10.0241 18.6694 10.1352 18.5873 10.3088C18.5057 10.4825 18.5322 10.6872 18.6554 10.8348L21.1264 13.7997C21.2205 13.9123 21.3591 13.9774 21.5062 13.9774C21.6528 13.9774 21.792 13.9118 21.8855 13.7997L24.3566 10.8348C24.4797 10.6867 24.5057 10.482 24.4241 10.3083Z" fill="#1956BF"/>
<path d="M11.8232 3.5993C11.2772 3.5993 10.8349 4.04167 10.8349 4.58762V10.5846C10.388 10.8979 10.0938 11.4143 10.0938 12.0008C10.0938 12.9546 10.8699 13.7307 11.8237 13.7307C12.0849 13.7307 12.3311 13.6682 12.5533 13.5636L15.9911 15.5477C16.1473 15.6383 16.3164 15.6808 16.4845 15.6808C16.8258 15.6808 17.1581 15.5037 17.3413 15.1864C17.614 14.7145 17.4523 14.1095 16.979 13.8368L13.5376 11.8496C13.4916 11.3272 13.2198 10.8708 12.8125 10.5856V4.58762C12.8115 4.04217 12.3686 3.5993 11.8232 3.5993ZM11.8232 12.7414C11.4143 12.7414 11.0821 12.4086 11.0821 12.0008C11.0821 11.5924 11.4148 11.2597 11.8232 11.2597C12.2315 11.2597 12.5643 11.5924 12.5643 12.0008C12.5643 12.4086 12.2315 12.7414 11.8232 12.7414Z" fill="#1956BF"/>
</g>
<defs>
<clipPath id="clip0">
<rect width="23.52" height="23.52" fill="white" transform="translate(0.0800781 0.23999)"/>
</clipPath>
</defs>
</svg>
